# xmcd
#
# Track frame offsets:
#	150
#	15121
#	29104
#	48297
#	62564
#	79751
#	110679
#
# Disc length: 1662 seconds
#
# Revision: 0
# Processed by: cddbd v1.5.1PL0 Copyright (c) Steve Scherf et al.
# Submitted via: dBpowerAMP V4.0
#
DISCID=4f067c07
DTITLE=Arnold Veeman - Contrast [CD2)
DYEAR=1900
DGENRE=Country
TTITLE0=Zokse mooie ogen
TTITLE1=Sweem van dou
TTITLE2=Mien lutje laif
TTITLE3=Labberint
TTITLE4=Aiweg
TTITLE5=Nekstoe Mie
TTITLE6=DATA
EXTD=
EXTT0=
EXTT1=
EXTT2=
EXTT3=
EXTT4=
EXTT5=
EXTT6=
PLAYORDER=
